<?xml version="1.0" encoding="UTF-8"?>
<svg xmlns="http://www.w3.org/2000/svg" xmlns:xlink="http://www.w3.org/1999/xlink" width="16px" height="16px" viewBox="0 0 16 16" version="1.1">
<g id="surface1">
<path style="fill-rule:nonzero;fill:rgb(100%,100%,100%);fill-opacity:1;stroke-width:1;stroke-linecap:butt;stroke-linejoin:miter;stroke:rgb(100%,100%,100%);stroke-opacity:1;stroke-miterlimit:4;" d="M 20.267578 16.265625 L 20.976562 12.1875 C 21.152344 11.167969 20.367188 10.236328 19.335938 10.236328 L 14.15625 10.236328 C 13.640625 10.236328 13.248047 9.773438 13.330078 9.263672 L 13.998047 5.220703 C 14.103516 4.564453 14.074219 3.890625 13.904297 3.246094 C 13.763672 2.712891 13.353516 2.285156 12.814453 2.109375 L 12.667969 2.0625 C 12.339844 1.957031 11.982422 1.986328 11.671875 2.132812 C 11.332031 2.296875 11.085938 2.595703 10.992188 2.947266 L 10.517578 4.78125 C 10.365234 5.367188 10.148438 5.929688 9.861328 6.462891 C 9.445312 7.242188 8.806641 7.863281 8.138672 8.4375 L 6.697266 9.679688 C 6.292969 10.025391 6.082031 10.552734 6.123047 11.085938 L 6.9375 20.478516 C 7.013672 21.339844 7.734375 22.001953 8.595703 22.001953 L 13.248047 22.001953 C 16.728516 22.001953 19.699219 19.576172 20.267578 16.265625 Z M 20.267578 16.265625 " transform="matrix(0.666667,0,0,0.666667,0,0)"/>
<path style="fill-rule:evenodd;fill:rgb(100%,100%,100%);fill-opacity:1;stroke-width:1;stroke-linecap:butt;stroke-linejoin:miter;stroke:rgb(100%,100%,100%);stroke-opacity:1;stroke-miterlimit:4;" d="M 2.964844 9.486328 C 3.369141 9.46875 3.714844 9.767578 3.75 10.171875 L 4.716797 21.404297 C 4.78125 22.130859 4.212891 22.751953 3.486328 22.751953 C 2.800781 22.751953 2.25 22.195312 2.25 21.515625 L 2.25 10.236328 C 2.25 9.832031 2.566406 9.503906 2.964844 9.486328 Z M 2.964844 9.486328 " transform="matrix(0.666667,0,0,0.666667,0,0)"/>
</g>
</svg>
