<?xml version="1.0" encoding="UTF-8"?>
<svg xmlns="http://www.w3.org/2000/svg" xmlns:xlink="http://www.w3.org/1999/xlink" width="16px" height="16px" viewBox="0 0 16 16" version="1.1">
<g id="surface1">
<path style="fill-rule:nonzero;fill:rgb(0%,0%,0%);fill-opacity:1;stroke-width:1;stroke-linecap:butt;stroke-linejoin:miter;stroke:rgb(0%,0%,0%);stroke-opacity:1;stroke-miterlimit:4;" d="M 11.8125 6.726562 C 12.826172 4.910156 13.330078 4.001953 14.091797 4.001953 C 14.847656 4.001953 15.351562 4.910156 16.365234 6.726562 L 16.628906 7.195312 C 16.916016 7.710938 17.0625 7.974609 17.285156 8.144531 C 17.507812 8.314453 17.789062 8.378906 18.345703 8.501953 L 18.855469 8.619141 C 20.824219 9.064453 21.808594 9.287109 22.042969 10.037109 C 22.277344 10.792969 21.603516 11.578125 20.267578 13.142578 L 19.916016 13.552734 C 19.535156 13.998047 19.347656 14.220703 19.259766 14.496094 C 19.171875 14.771484 19.201172 15.070312 19.259766 15.662109 L 19.3125 16.201172 C 19.517578 18.298828 19.617188 19.341797 19.007812 19.810547 C 18.392578 20.273438 17.472656 19.851562 15.626953 19.001953 L 15.152344 18.779297 C 14.630859 18.539062 14.367188 18.421875 14.091797 18.421875 C 13.810547 18.421875 13.546875 18.539062 13.025391 18.779297 L 12.550781 19.001953 C 10.705078 19.851562 9.785156 20.273438 9.175781 19.810547 C 8.560547 19.341797 8.660156 18.298828 8.865234 16.201172 L 8.917969 15.662109 C 8.976562 15.070312 9.005859 14.771484 8.917969 14.496094 C 8.830078 14.220703 8.642578 13.998047 8.261719 13.552734 L 7.910156 13.142578 C 6.574219 11.578125 5.900391 10.792969 6.134766 10.037109 C 6.369141 9.287109 7.353516 9.064453 9.322266 8.619141 L 9.832031 8.501953 C 10.388672 8.378906 10.669922 8.314453 10.892578 8.144531 C 11.115234 7.974609 11.261719 7.710938 11.548828 7.195312 Z M 11.8125 6.726562 " transform="matrix(0.666667,0,0,0.666667,0,0)"/>
<path style="fill-rule:evenodd;fill:rgb(0%,0%,0%);fill-opacity:1;stroke-width:1;stroke-linecap:butt;stroke-linejoin:miter;stroke:rgb(0%,0%,0%);stroke-opacity:1;stroke-miterlimit:4;" d="M 8.748047 5.203125 C 6.761719 4.628906 4.640625 4.933594 2.589844 6.134766 L 2.378906 6.257812 C 2.021484 6.462891 1.564453 6.345703 1.353516 5.988281 C 1.142578 5.630859 1.265625 5.173828 1.623047 4.962891 L 1.828125 4.839844 C 4.189453 3.457031 6.738281 3.064453 9.158203 3.761719 L 9.369141 3.820312 C 9.767578 3.9375 9.996094 4.353516 9.878906 4.751953 C 9.767578 5.144531 9.351562 5.378906 8.953125 5.261719 Z M 4.833984 9.9375 C 4.869141 10.347656 4.564453 10.710938 4.154297 10.746094 C 4.001953 10.757812 3.884766 10.769531 3.785156 10.775391 C 3.603516 10.787109 3.492188 10.792969 3.339844 10.822266 C 3.140625 10.857422 2.888672 10.939453 2.425781 11.173828 C 2.056641 11.355469 1.605469 11.203125 1.417969 10.833984 C 1.230469 10.464844 1.382812 10.013672 1.751953 9.832031 C 2.291016 9.5625 2.677734 9.421875 3.058594 9.351562 C 3.304688 9.298828 3.556641 9.287109 3.785156 9.269531 C 3.873047 9.263672 3.949219 9.257812 4.025391 9.251953 C 4.435547 9.216797 4.798828 9.521484 4.833984 9.9375 Z M 5.917969 15.855469 C 4.734375 15.580078 3.486328 15.855469 2.554688 16.587891 C 2.226562 16.845703 1.757812 16.787109 1.5 16.464844 C 1.242188 16.136719 1.300781 15.667969 1.623047 15.410156 C 2.923828 14.390625 4.640625 14.015625 6.257812 14.396484 C 6.662109 14.490234 6.914062 14.894531 6.820312 15.298828 C 6.726562 15.703125 6.322266 15.949219 5.917969 15.855469 Z M 5.917969 15.855469 " transform="matrix(0.666667,0,0,0.666667,0,0)"/>
</g>
</svg>
