<?xml version="1.0" encoding="UTF-8"?>
<svg xmlns="http://www.w3.org/2000/svg" xmlns:xlink="http://www.w3.org/1999/xlink" width="16px" height="16px" viewBox="0 0 16 16" version="1.1">
<g id="surface1">
<path style="fill-rule:nonzero;fill:rgb(100%,100%,100%);fill-opacity:1;stroke-width:1;stroke-linecap:butt;stroke-linejoin:miter;stroke:rgb(100%,100%,100%);stroke-opacity:1;stroke-miterlimit:4;" d="M 28 51.912109 C 41.056641 51.912109 51.912109 41.056641 51.912109 28 C 51.912109 14.916016 41.029297 4.087891 27.972656 4.087891 C 14.902344 4.087891 4.087891 14.916016 4.087891 28 C 4.087891 41.056641 14.916016 51.912109 28 51.912109 Z M 28 26.6875 C 24.746094 26.660156 22.162109 23.939453 22.162109 20.316406 C 22.162109 16.912109 24.746094 14.082031 28 14.082031 C 31.240234 14.082031 33.810547 16.912109 33.810547 20.316406 C 33.810547 23.939453 31.240234 26.728516 28 26.6875 Z M 17.623047 39.744141 C 16.707031 39.744141 16.255859 39.128906 16.255859 38.308594 C 16.255859 35.806641 20.029297 29.353516 28 29.353516 C 35.970703 29.353516 39.716797 35.806641 39.716797 38.308594 C 39.716797 39.128906 39.279297 39.744141 38.376953 39.744141 Z M 17.623047 39.744141 " transform="matrix(0.285714,0,0,0.285714,0,0)"/>
</g>
</svg>
