<?xml version="1.0" encoding="UTF-8"?>
<svg xmlns="http://www.w3.org/2000/svg" xmlns:xlink="http://www.w3.org/1999/xlink" width="16px" height="16px" viewBox="0 0 16 16" version="1.1">
<g id="surface1">
<path style=" stroke:none;fill-rule:nonzero;fill:rgb(100%,100%,100%);fill-opacity:1;" d="M 13.511719 5.65625 L 13.984375 8.375 C 14.101562 9.054688 13.578125 9.675781 12.890625 9.675781 L 9.4375 9.675781 C 9.09375 9.675781 8.832031 9.984375 8.886719 10.324219 L 9.332031 13.019531 C 9.402344 13.457031 9.382812 13.90625 9.269531 14.335938 C 9.175781 14.691406 8.902344 14.976562 8.542969 15.09375 L 8.445312 15.125 C 8.226562 15.195312 7.988281 15.175781 7.78125 15.078125 C 7.554688 14.96875 7.390625 14.769531 7.328125 14.535156 L 7.011719 13.3125 C 6.910156 12.921875 6.765625 12.546875 6.574219 12.191406 C 6.296875 11.671875 5.871094 11.257812 5.425781 10.875 L 4.464844 10.046875 C 4.195312 9.816406 4.054688 9.464844 4.082031 9.109375 L 4.625 2.847656 C 4.675781 2.273438 5.15625 1.832031 5.730469 1.832031 L 8.832031 1.832031 C 11.152344 1.832031 13.132812 3.449219 13.511719 5.65625 Z M 13.511719 5.65625 "/>
<path style=" stroke:none;fill-rule:evenodd;fill:rgb(100%,100%,100%);fill-opacity:1;" d="M 1.976562 10.175781 C 2.246094 10.1875 2.476562 9.988281 2.5 9.71875 L 3.144531 2.230469 C 3.1875 1.75 2.808594 1.332031 2.324219 1.332031 C 1.867188 1.332031 1.5 1.703125 1.5 2.15625 L 1.5 9.675781 C 1.5 9.945312 1.710938 10.164062 1.976562 10.175781 Z M 1.976562 10.175781 "/>
</g>
</svg>
